<svg width="20" height="20" viewBox="0 0 20 20" fill="none" xmlns="http://www.w3.org/2000/svg">
<g clip-path="url(#clip0_353_10282)">
<path d="M10.0004 19.6C4.70699 19.6 0.400391 15.2934 0.400391 9.99999C0.400391 4.70659 4.70699 0.399994 10.0004 0.399994C15.2938 0.399994 19.6004 4.70659 19.6004 9.99999C19.6004 15.2934 15.2938 19.6 10.0004 19.6ZM10.0004 1.59999C5.36859 1.59999 1.60039 5.36819 1.60039 9.99999C1.60039 14.6318 5.36859 18.4 10.0004 18.4C14.6322 18.4 18.4004 14.6318 18.4004 9.99999C18.4004 5.36819 14.6322 1.59999 10.0004 1.59999ZM14.4688 14.1368C14.7652 13.9886 14.8854 13.6282 14.7372 13.3318C14.6812 13.22 13.333 10.6 10.0004 10.6C6.66779 10.6 5.31959 13.22 5.26359 13.3316C5.11599 13.627 5.23539 13.985 5.52999 14.134C5.82539 14.2826 6.18499 14.1648 6.33559 13.871C6.37899 13.7864 7.42639 11.8 10.0004 11.8C12.5744 11.8 13.6218 13.7864 13.6636 13.8684C13.7688 14.0788 13.9806 14.2004 14.201 14.2C14.291 14.2 14.3826 14.1798 14.4688 14.1368ZM13.0004 8.79999C12.3386 8.79999 11.8004 8.26179 11.8004 7.59999C11.8004 6.93819 12.3386 6.39999 13.0004 6.39999C13.6622 6.39999 14.2004 6.93819 14.2004 7.59999C14.2004 8.26179 13.6622 8.79999 13.0004 8.79999ZM7.00039 8.79999C6.33859 8.79999 5.80039 8.26179 5.80039 7.59999C5.80039 6.93819 6.33859 6.39999 7.00039 6.39999C7.66219 6.39999 8.20039 6.93819 8.20039 7.59999C8.20039 8.26179 7.66219 8.79999 7.00039 8.79999Z" fill="#8D8D8D"/>
</g>
<defs>
<clipPath id="clip0_353_10282">
<rect width="20" height="20" fill="white"/>
</clipPath>
</defs>
</svg>
